<?xml version="1.0" encoding="iso-8859-1"?>
<!-- Uploaded to: SVG Repo, www.svgrepo.com, Generator: SVG Repo Mixer Tools -->
<svg height="800px" width="800px" version="1.1" id="Capa_1" xmlns="http://www.w3.org/2000/svg" xmlns:xlink="http://www.w3.org/1999/xlink" 
	 viewBox="0 0 413.701 413.701" xml:space="preserve">
<g>
	<g>
		<path style="fill:#010002;" d="M97.194,180.904l-2.625,15.281c-0.215,1.253,0.298,2.5,1.331,3.252
			c1.02,0.74,2.399,0.847,3.461,0.274l13.772-7.238l13.724,7.208c1.134,0.609,2.5,0.483,3.503-0.245
			c1.02-0.74,1.539-2.017,1.331-3.252l-2.625-15.287l11.104-10.824c0.913-0.889,1.241-2.196,0.847-3.401
			c-0.4-1.217-1.426-2.094-2.691-2.273l-15.353-2.244l-6.856-13.897c-0.525-1.062-1.939-1.438-2.983-1.438
			c-1.05,0-2.464,0.376-2.989,1.444l-6.838,13.891l-15.353,2.244c-1.265,0.179-2.297,1.056-2.697,2.273
			c-0.388,1.205-0.066,2.506,0.847,3.401L97.194,180.904z"/>
		<path style="fill:#010002;" d="M97.194,100.56l-2.625,15.281c-0.215,1.247,0.298,2.494,1.337,3.252
			c1.002,0.734,2.405,0.835,3.479,0.263l13.748-7.232l13.724,7.214c1.104,0.591,2.5,0.483,3.503-0.251
			c1.02-0.746,1.539-2.017,1.331-3.258l-2.625-15.281l11.104-10.824c0.913-0.889,1.241-2.196,0.847-3.401
			c-0.4-1.217-1.426-2.094-2.691-2.273l-15.353-2.244l-6.856-13.903c-0.525-1.062-1.933-1.438-2.983-1.438s-2.464,0.376-2.989,1.444
			l-6.838,13.897l-15.353,2.238c-1.265,0.185-2.297,1.062-2.697,2.279c-0.388,1.205-0.066,2.506,0.847,3.401L97.194,100.56z"/>
		<path style="fill:#010002;" d="M138.324,244.737l-15.353-2.232l-6.856-13.897c-1.062-2.124-4.929-2.13-5.979,0.006l-6.844,13.891
			l-15.353,2.232c-1.259,0.185-2.291,1.062-2.691,2.279c-0.388,1.205-0.066,2.512,0.847,3.395l11.098,10.83l-2.625,15.281
			c-0.209,1.235,0.31,2.512,1.325,3.246c1.008,0.734,2.399,0.847,3.485,0.274l13.754-7.226l13.724,7.208
			c1.134,0.609,2.494,0.489,3.503-0.251c1.02-0.74,1.539-2.017,1.331-3.252l-2.625-15.281l11.104-10.824
			c0.919-0.895,1.241-2.196,0.853-3.401C140.615,245.787,139.589,244.922,138.324,244.737z"/>
		<path style="fill:#010002;" d="M26.851,0v413.701H386.85V0H26.851z M73.9,82.641c1.82-5.573,6.54-9.547,12.316-10.394l9.141-1.337
			l4.075-8.276c2.47-4.994,7.715-8.097,13.694-8.097s11.218,3.103,13.682,8.091l4.087,8.282l9.141,1.337
			c5.782,0.835,10.502,4.815,12.316,10.382c1.814,5.561,0.334,11.558-3.861,15.651l-6.611,6.444l1.563,9.094
			c0.979,5.68-1.408,11.54-6.068,14.923c-4.606,3.353-11.063,3.813-16.093,1.158l-8.157-4.29l-8.175,4.296
			c-2.154,1.146-4.612,1.754-7.089,1.754c-3.252,0-6.361-1.008-8.986-2.924c-4.732-3.449-7.059-9.165-6.074-14.917l1.563-9.099
			l-6.599-6.444C73.577,94.199,72.098,88.208,73.9,82.641z M73.9,162.985c1.82-5.579,6.546-9.559,12.328-10.394l9.129-1.337
			l4.075-8.27c2.47-4.994,7.715-8.097,13.694-8.097s11.218,3.103,13.682,8.091l4.087,8.276l9.141,1.337
			c5.782,0.835,10.502,4.815,12.316,10.382c1.814,5.561,0.334,11.558-3.861,15.651l-6.611,6.444l1.563,9.099
			c0.979,5.68-1.408,11.54-6.074,14.923c-4.612,3.365-11.086,3.819-16.105,1.14l-8.139-4.278l-8.175,4.296
			c-2.136,1.146-4.606,1.766-7.095,1.766c-3.252,0-6.361-1.014-8.992-2.936c-4.72-3.437-7.047-9.153-6.062-14.911l1.563-9.105
			l-6.599-6.444C73.577,174.543,72.098,168.552,73.9,162.985z M148.492,258.962l-6.605,6.438l1.563,9.099
			c0.979,5.68-1.408,11.54-6.074,14.923c-2.619,1.909-5.728,2.924-8.968,2.924c-2.464,0-4.929-0.615-7.118-1.772l-8.157-4.284
			l-8.175,4.296c-4.976,2.643-11.45,2.202-16.081-1.175c-4.654-3.371-7.041-9.231-6.068-14.911l1.563-9.099l-6.599-6.444
			c-4.189-4.081-5.674-10.072-3.867-15.633c1.82-5.573,6.534-9.553,12.316-10.394l9.141-1.337l4.075-8.27
			c2.47-4.994,7.715-8.091,13.694-8.091s11.224,3.103,13.682,8.091l4.087,8.27l9.141,1.337c5.782,0.835,10.508,4.815,12.322,10.388
			C154.172,248.884,152.692,254.881,148.492,258.962z M305.301,259.756H175.026v-11.934h130.275V259.756z M305.301,179.418H175.026
			v-11.934h130.275V179.418z M305.301,99.074H175.026V87.14h130.275V99.074z"/>
	</g>
</g>
</svg>