<svg version="1.2" xmlns="http://www.w3.org/2000/svg" viewBox="0 0 1596 1595" width="1596" height="1595">
	<title>LTIMindtree_Linear_2-1-LT-Blue-1-1-svg</title>
	<style>
		.s0 { fill: #004c88 } 
	</style>
	<g id="#004c88ff">
		<path id="Layer" fill-rule="evenodd" class="s0" d="m708.6 5.2c152.4-17.2 309.8 10.3 446.8 79.6 174.1 87.3 314.5 239.9 385.5 421.4 61.7 155.1 71.2 329.9 29.3 491.4-43.3 166.3-142 317.7-277.1 424-120.1 96-268.8 156-422.1 169.5-189.6 18.3-385.4-34.9-539.1-147.5-146.8-105.2-255.7-261.9-302.9-436.1-52.4-190.8-31.1-401.1 60.8-576.6 118.8-232.8 358.5-398.7 618.8-425.7zm9.5 101.4c-115 196.3-228.4 393.5-342.1 590.6 141.2 0.3 282.6 0 423.8 0.1-38.3 67-77.5 133.4-116.1 200.2-180.6-0.1-361.4 0.2-542.1-0.2 146.5-253.3 292.9-506.4 438.9-759.8-137.6 46.3-260.8 135.5-345.6 253.5-85.2 117.4-134.1 262.1-131.7 407.5-1.8 164 60.8 326.6 167.6 450.5 104.9 122.9 254.1 208.1 413.7 233.7 12.9-11.2 18.8-28.1 27.7-42.3 104-181 208.4-362 312.8-542.9-76.5-0.1-152.9 0.1-229.3-0.1 37.9-66.8 76.6-133.2 114.8-199.8 180.9-0.6 361.8 0 542.8-0.4-37.9 67.1-76.9 133.3-114.9 200.3-64.7-0.3-129.5 0.7-194.2-0.7-115.9 198.1-229.5 397.7-343.8 596.8 135.5-1.8 270.6-42.2 382.9-118.4 143.5-95.4 249.5-245.6 290.7-412.9 35.4-140.8 24.1-292.8-31.6-426.8-58.6-143.1-166.6-265.1-300.9-341.7-127.1-73.3-277.7-103.5-423.4-87.2z"/>
	</g>
</svg>