<?xml version="1.0" encoding="utf-8"?>
<!-- Generator: Adobe Illustrator 19.0.0, SVG Export Plug-In . SVG Version: 6.00 Build 0)  -->
<svg version="1.1" id="layer" xmlns="http://www.w3.org/2000/svg" xmlns:xlink="http://www.w3.org/1999/xlink" x="0px" y="0px"
	 viewBox="-153 -46 652 652" style="enable-background:new -153 -46 652 652;" xml:space="preserve">
<style type="text/css">
	.st0{fill:#427488;}
	.st1{fill:#FFFFFF;}
	.st2{fill:#859EAD;}
</style>
<rect x="-20.9" y="30" class="st0" width="388.2" height="414.5"/>
<path class="st1" d="M104.6,445.2l0.2,0.1L104.6,445.2L104.6,445.2z M337.1,422.7l-1.3-1.9l-1.3-1.8c-0.9-1.3-1.9-2.5-2.9-3.7
	l-0.6-0.8c1.2-9.6,2.3-19.4,2.8-29.3c0.3-5.2,0.4-10.4,0.4-15.6c0-2.6-0.1-5.2-0.3-7.9c-0.1-1.3-0.2-2.7-0.3-4l0-0.1l0-0.4l0-0.1
	l0-0.2l-0.1-0.5l-0.2-1.1c-0.1-0.7-0.2-1.4-0.4-2.1c-1.2-5.7-3.2-11.1-6-16l-0.9-1.5c2.5-2.1,5.2-4.1,8-5.7c1.6-1,3.4-1.6,5.4-1.9
	c1.9-0.3,3.9-0.5,5.8-1.1c-1.9,0.4-3.9,0.4-5.9,0.5c-2,0.1-4,0.5-5.9,1.4c-3,1.4-5.9,3-8.7,4.9c-2.2-3.5-4.8-6.7-7.4-9.7
	c-3.5-4-7.2-7.6-10.9-11.1l-5.6-5.1l-2.8-2.5l-0.7-0.6l-0.1-0.1l0,0l0,0l-0.2-0.2l-0.3-0.3l-1.3-1.3c-7-6.9-13.7-14.1-19.6-21.9
	c-2.9-3.8-5.6-7.8-8.1-11.9c1.1-0.9,2.2-1.8,3.4-2.7c1.8-1.4,3.7-3.1,5-5.1c2.6-3.9,4.7-7.9,6.3-12.3l0,0l0-0.1
	c0.6-3.1,1.4-6.1,1.7-9.3v0v0c-0.1-4.4-2.2-8.4-2-12.8c-0.5,4.3,1.4,8.5,1.3,12.8c-0.5,3-1.4,6-2.2,9c-1.7,4.1-4.1,8-6.7,11.6
	c-1.3,1.8-2.9,3.1-4.8,4.4c-1.1,0.7-2.2,1.5-3.4,2.3c-2.1-3.6-3.9-7.3-5.6-11.1c-3.8-9-6.3-18.6-6.8-28.5c-0.5-9.9,1-19.9,4.2-29.4
	c-3.9,9.2-6.3,19.2-6.6,29.4c-0.3,10.2,1.4,20.4,4.7,30.2c3.2,9.5,7.7,18.4,13,26.8l-0.3-0.1c-1.6-0.9-3.5-1.5-5.4-1.7
	c-1.9-0.2-3.7,0-5.5,0.4c-3.4,0.9-6.9,1.7-10.4,1.4c-3.5-0.2-6.9-1.4-10.1-2.8c3.1,1.7,6.5,3.1,10.1,3.5c3.6,0.4,7.2-0.1,10.7-0.8
	c1.6-0.3,3.4-0.4,5-0.1c1.7,0.3,3.2,0.9,4.6,1.8c1.4,0.8,2.7,1.9,4.1,2.9c4.9,7.3,10.4,14.2,16.1,20.8l1.3,1.4l0.3,0.4l0.2,0.2
	l0.2,0.2l0.6,0.7l2.6,2.8l5.1,5.5c3.3,3.6,6.5,7.3,9.3,11.1c2.8,3.8,5.2,7.7,7.1,11.7c1.8,4,3,8.2,3.5,12.4l0.2,1.6l0.1,0.8l0,0.5
	l0,0.2l0,0.1l0-0.3v0.1c0,1.2,0,2.4,0,3.5c0,2.4-0.1,4.7-0.3,7.1c-0.3,4.8-0.9,9.6-1.5,14.4c-0.7,4.8-1.5,9.6-2.4,14.5
	c-8-6.7-16.6-12.3-25.2-17.3c-2.7-1.5-5.4-3-8.1-4.5c0.3-2.9,0.6-5.8,0.8-8.7c0.3-4.3,0.5-8.7,0.1-13.1c-0.3-3.5-0.9-6.9-1.9-10.2
	l0.2,0.1c0.4-0.9,1.3-1.8,2.4-2.5c1.1-0.7,2.3-1.4,3.5-1.9c2.5-1.1,5.1-2,7.7-2.7c-2.7,0.3-5.5,0.8-8.2,1.5c-1.3,0.4-2.7,0.8-4,1.5
	c-0.7,0.3-1.3,0.7-1.9,1.1l-0.5,0.4l-0.1-0.2c-1.5-4.2-3.4-8.1-5.5-11.8c-0.5-0.9-1.1-1.9-1.6-2.8c-0.6-1-1.2-1.9-1.9-2.7
	c-1.3-1.8-2.7-3.4-4.1-5c-2.8-3.2-5.8-6.2-8.6-9.3c-2.8-3.1-5.5-6.3-7.7-9.8c-2.2-3.5-3.9-7.5-4.3-11.7c0.1,4.2,1.5,8.4,3.5,12.2
	c2,3.8,4.5,7.3,7.1,10.6c2.6,3.3,5.3,6.6,7.9,9.9l0.2,0.3c-0.8,0.1-1.6,0.3-2.3,0.5c-1.2,0.4-2.3,0.9-3.3,1.6s-2,1.5-2.7,2.5
	c-0.7,1-0.9,2.3-0.5,3.4c-0.2-1.2,0.3-2.3,1.1-3c0.8-0.8,1.7-1.3,2.7-1.7c1-0.4,2.1-0.7,3.2-0.8c1.1-0.1,2.2-0.2,3.1,0l0.1-0.7
	c0.7,1,1.4,2,2,3c0.5,0.9,1.1,1.8,1.5,2.6c0.5,0.9,0.9,1.9,1.4,2.8c1.8,3.7,3.3,7.6,4.3,11.5c1,3.9,1.6,7.9,1.6,11.9
	c0,4-0.4,8-1,12.1c-0.3,1.9-0.6,3.9-1,5.8l-0.5-0.3c-5.1-2.6-10-5.2-14.7-8c-9.4-5.7-17.9-12.2-24.4-20.5c-6.6-8.2-11.4-18-15-28.5
	l-0.7-2l-0.3-1l-0.3-0.9l-1.2-4.1c-0.8-2.7-1.6-5.4-2.3-8.1c-1.5-5.4-2.8-10.9-3.9-16.4c-2.2-11-3.5-22.1-3.4-33.3
	c0.1-11.1,1.6-22.3,4.5-33.1c0.4-1.4,0.7-2.7,1.1-4.1l0.6-2l0.6-2.1c0.8-2.7,1.7-5.4,2.6-8.1c0.7-2,1.4-4.1,2.1-6.1
	c1.5-2,3.3-4,5.1-5.8c2.1-2,4.3-3.9,6.5-5.7c1.1-0.9,2.3-1.8,3.5-2.6l1.8-1.3l0.2-0.2l0.1-0.1l0,0l0.1,0l0.5-0.3l0.9-0.5
	c1.3-0.6,2.6-1,4-1.3c1.4-0.3,2.9-0.5,4.3-1.3c1.4-0.7,2.4-1.8,3.4-2.9l1.4-1.7c0.4-0.6,0.8-1.3,1.1-1.9c1.2-2.7,1.8-5.6,2.3-8.5
	c0.5-2.9,0.8-5.8,1.3-8.6c-0.6,2.8-1,5.7-1.7,8.6c-0.6,2.8-1.3,5.7-2.5,8.3c-0.3,0.6-0.7,1.2-1.1,1.8l-1.4,1.6c-1,1.1-2,2-3.3,2.6
	c-1.2,0.6-2.6,0.8-4.1,1.1c-1.5,0.2-2.9,0.6-4.3,1.2l-1,0.5l-0.5,0.3l-0.1,0l0,0l-0.1,0l-0.1,0.1l-0.2,0.2l-1.8,1.2
	c-1.2,0.8-2.4,1.6-3.6,2.5c-2.4,1.7-4.7,3.5-6.9,5.5c-0.6,0.6-1.3,1.2-1.9,1.8c0.6-1.6,1.1-3.1,1.7-4.7c3.9-10.8,8-21.5,11.6-32.4
	c1.9-5.5,3.4-11.1,4.3-16.9l0.1-0.7l2.8-0.3l0.2,0.3c1.4,2,4.5,2.1,10.4-2.2c5.9-4.3,8.5-11.6,8.5-11.6s-7.7,0.2-13.6,4.5
	c-4.7,3.4-6.1,6-5.8,7.9l-2.2,0.2c0.7-5.1,0.7-10.4,0.2-15.5c-0.6-5.8-2-11.4-3.5-16.9c-1.5-5.5-3.1-11-4.5-16.6
	c1.1,5.6,2.5,11.2,3.7,16.8c1.2,5.6,2.3,11.2,2.7,16.9c0.4,5.7-0.1,11.3-1.2,16.8c-0.9,4.6-2.3,9-3.9,13.5l-3.6-1.4
	c0.8-1.8,0.1-4.7-3.6-9.2c-4.6-5.7-12-7.8-12-7.8s0.6,7.7,5.2,13.4c4.6,5.7,7.6,6.3,9.5,4.8l0.2-0.1l3.9,1.5l-0.7,1.7
	c-5.3,13.7-11.3,27.2-16.9,40.9c-0.3-0.7-0.7-1.4-1.2-2.1c-2-3.1-4.8-5.4-7.5-7.6c-2.7-2.2-5.6-4.1-8-6.7c-1.1-1.3-2.1-2.7-2.5-4.4
	c-0.4-1.7,0.1-3.5,0.8-5c-0.9,1.5-1.4,3.3-1.2,5c0.2,1.8,1.2,3.4,2.3,4.8c2.3,2.8,5.1,4.9,7.6,7.2c2.6,2.3,5,4.7,6.7,7.6
	c0.8,1.3,1.3,2.8,1.6,4.2c-2.6,6.6-5.1,13.3-7.3,20.1c-0.7,2.1-1.2,4.2-1.8,6.3l-0.1-0.9c-3.3,0.4-6.5,0.1-9.7-0.8
	c-3.2-0.9-6.2-2.3-9-4.1c-5.6-3.6-10.2-8.7-13.9-14.3c-3.6-5.7-6.3-12-7.7-18.6c-1.3-6.6-1.2-13.6,1.3-19.8c1.2-3.1,3.2-5.9,5.8-8
	c2.5-2.2,5.5-3.8,8.5-5.5c3-1.6,6.1-3.2,8.9-5.2c1.4-1,2.8-2.1,4-3.3c1.2-1.2,2.5-2.4,3.6-3.7c2.2-2.6,4-5.6,5.3-8.9
	c1.2-3.2,1.9-6.6,2.2-10.1c0.5-6.9-0.6-13.7-1.9-20.4c1.2,6.7,2.1,13.6,1.6,20.4c-0.3,3.4-1,6.8-2.3,9.9c-1.3,3.1-3.1,6.1-5.3,8.6
	c-1.1,1.3-2.3,2.5-3.6,3.6c-1.2,1.2-2.6,2.2-4,3.2c-2.8,1.9-5.8,3.5-8.9,5c-3,1.6-6.1,3.2-8.8,5.5c-1.3,1.1-2.6,2.4-3.6,3.8
	c-1.1,1.4-1.9,3-2.6,4.6c-1.4,3.2-2.1,6.7-2.4,10.2c-0.2,3.5,0,7,0.6,10.4c1.3,6.9,3.9,13.4,7.6,19.3c3.7,5.9,8.4,11.2,14.3,15.2
	c2.9,2,6.1,3.6,9.5,4.6c3.2,1,6.7,1.3,10,1.1c-2.2,8.7-3.6,17.7-4.1,26.7c-0.2,3.7-0.3,7.4-0.2,11.1c-4.4-1.7-8.7-3.7-12.8-6.1
	c-5.6-3.2-10.8-7.1-15.6-11.5c-9.7-8.7-17.7-19.3-24.8-30.4c-7.1-11.2-13.3-23-19.5-34.8c-1.3-2.5-2.6-5-3.9-7.5
	c1.4-1.2,2.7-2.7,3.8-4.3c1.1-1.7,2-3.5,2.7-5.4c1.3-3.8,1.8-7.6,2.3-11.4c0.5-3.8,0.9-7.6,2.2-11.2c0.6-1.8,1.4-3.5,2.5-5.1
	c1.1-1.5,2.5-2.9,4.1-4c-1.6,1-3.1,2.3-4.3,3.8c-1.2,1.5-2.2,3.2-2.9,5c-1.5,3.6-2.1,7.5-2.8,11.2c-0.7,3.8-1.4,7.5-2.9,10.9
	c-1.3,3.2-3.3,5.9-5.8,8c-4.5-8.6-9.2-17.1-14.4-25.3c12.3,21.8,21.1,45.2,33.2,67.3c-2.3,2.2-5.1,3.9-8.2,5.1
	c-3.5,1.4-7.3,2.2-11,2.5c-3.8,0.3-7.6,0-11.3-1c-1.8-0.5-3.6-1.2-5.2-2.1c-1.6-1-3.2-2.1-4.8-3.2c-1.6-1.1-3.2-2.3-5-3.2
	c-0.9-0.5-1.8-0.8-2.7-1.2l-2.8-1c-3.7-1.3-7.4-2.4-11.2-3.5c-7.5-2.2-14.9-4.5-22.1-7.6c7.1,3.3,14.5,5.7,21.9,8.2
	c3.7,1.2,7.4,2.5,11,3.8l2.7,1c0.9,0.4,1.8,0.7,2.6,1.2c1.7,0.9,3.2,2,4.8,3.2c1.5,1.2,3.1,2.4,4.8,3.4c1.7,1.1,3.6,1.9,5.5,2.4
	c3.8,1.2,7.9,1.5,11.9,1.4c4-0.2,8-0.9,11.7-2.3c3.1-1.1,6.1-2.7,8.6-5c0.4,0.8,0.8,1.5,1.3,2.3c6.7,11.7,14.4,23,24.1,32.7
	c4.9,4.8,10.2,9.2,16,13c5.2,3.4,10.9,6.3,16.7,8.6c0.4,5.3,1,10.6,1.8,15.8c0.2,1.2,0.4,2.5,0.6,3.7c-5.4-0.9-10.7-2.5-15.9-4.6
	c-6.4-2.5-12.7-5.6-19-8.6c-6.4-3-12.9-6-19.8-8.2c-6.9-2.2-14.2-3.5-21.4-3.4c-0.9,0-1.8,0.1-2.7,0.1c-0.8,0-1.7,0.1-2.5,0.1
	c-1.7,0-3.4-0.1-5.1-0.3c-3.4-0.3-6.8-0.9-10.1-1.8c-6.7-1.7-13.2-4.3-19.2-7.8c-6-3.4-11.6-7.7-16.4-12.8
	c-4.7-5.1-8.6-11.2-10.7-17.9c1.8,6.8,5.4,13.1,10,18.5c4.6,5.4,10.1,10,16.1,13.8c6,3.8,12.6,6.8,19.4,8.9c3.4,1,6.9,1.9,10.5,2.4
	c1.8,0.3,3.6,0.4,5.4,0.5c0.9,0,1.8,0.1,2.7,0.1c0.9,0,1.7,0,2.6,0c6.8,0.2,13.5,1.7,19.9,4.1c6.4,2.4,12.6,5.5,18.8,8.8
	c6.2,3.3,12.4,6.7,19,9.6c6.3,2.8,13,5.1,20,6.3c0.4,1.9,0.8,3.7,1.2,5.5c0.6,2.8,1.3,5.7,2,8.5l1.1,4.2l0.3,1.1l0.3,1.1l0.6,2.1
	c1.7,5.7,3.7,11.3,6.3,16.9c2.5,5.5,5.6,10.9,9.3,15.9c1.5,2,3,4,4.6,5.8l-1.7,0.3c-5.1,1-10.2,2.3-15.1,3.7
	c-5.8,1.6-11.4,3.5-17,5.2c-7.2-4.7-14.7-8.6-21.9-12.6c-7.6-4.3-14.9-9-21.1-14.9l-9.8-9c-3.3-3-6.7-6-10.5-8.7
	c-3.7-2.7-7.9-5-12.3-6.5c-4.4-1.6-9-2.5-13.5-2.8c-1.1-0.1-2.3-0.2-3.4-0.2c-1.1,0-2.2-0.1-3.4-0.1c-1.6,0-3.2,0-4.8,0l-0.1-2.8
	l0.3-0.2c2.1-1.2,2.6-4.3-1.1-10.6c-3.7-6.3-10.7-9.6-10.7-9.6s-0.6,7.7,3.1,14c2.9,5,5.3,6.7,7.3,6.6l0.1,2.6l-0.8,0
	c-4.5,0.1-8.9,0.3-13.2,0c-4.3-0.3-8.6-1.1-12.4-2.9c-1-0.4-1.9-1-2.8-1.5l-1.4-0.9l-1.4-0.9c-1.9-1.2-3.7-2.4-5.5-3.7
	c-7.1-5.2-13.8-11.1-19.9-17.4c-6.1-6.4-11.8-13.2-16.4-20.9c4.3,7.8,9.7,14.9,15.7,21.5c6,6.6,12.4,12.8,19.5,18.3
	c1.8,1.4,3.6,2.7,5.4,4l1.4,0.9l1.4,0.9c1,0.6,2,1.2,3,1.7c4.1,2.1,8.7,3.2,13.2,3.7c4.5,0.5,9,0.5,13.4,0.5c2.2,0,4.4,0.1,6.6,0.2
	c1.1,0.1,2.1,0.1,3.3,0.2c1.1,0.1,2.2,0.2,3.2,0.3c1.8,0.2,3.6,0.5,5.3,0.9l-0.8,2.1c-1.7-1.2-4.7-0.7-9.6,3.2
	c-5.8,4.5-8,11.9-8,11.9s7.7-0.5,13.5-5c5.6-4.4,6.4-7.3,5.1-9.3l1.1-2.7c2,0.5,4,1.1,5.9,1.9c3.9,1.6,7.6,3.8,10.9,6.4
	c3.4,2.6,6.6,5.6,9.7,8.6l9.4,9.3c6.5,6.5,14.1,11.8,21.7,16.5c5.4,3.3,10.8,6.5,16,9.8c-0.9,0.3-1.7,0.5-2.6,0.8
	c-9.5,2.9-19.1,5.4-28.8,6.6c-4.8,0.6-9.7,0.9-14.6,0.8c-2.4,0-4.9-0.2-7.3-0.4l-1.8-0.2l-1.8-0.3c-1.2-0.2-2.4-0.4-3.7-0.6
	c-4.6-0.8-9.1-1.8-13.8-2.8c-1.4-0.6-2.7-1.2-4.1-1.8c-4.6-2.3-9-5.1-13.2-8c-8.5-5.9-16.7-12.5-25.7-17.8c-8.9-5.4-18-10.5-27-15.8
	c-8.9-5.3-17.7-11-25.8-17.5c8,6.7,16.7,12.5,25.5,18.1c8.8,5.5,17.9,10.8,26.6,16.3c8.9,5.4,16.8,12.2,25.3,18.3
	c3.2,2.3,6.6,4.6,10,6.6c-2.6-0.4-5.3-0.7-8-0.9c-5.3-0.3-10.6,0.4-15.7,1.9c-2.5,0.7-5,1.6-7.3,2.6c-1.2,0.5-2.4,1-3.5,1.6
	c-1.1,0.5-2.2,1.1-3.4,1.6c-9.1,4-18.9,6.3-28.8,8.2c-9.9,1.9-19.9,3.5-29.6,6.4c9.8-2.4,19.8-3.5,29.9-4.8
	c10-1.3,20.1-3.2,29.7-6.8c1.2-0.4,2.4-0.9,3.6-1.4c1.1-0.5,2.3-0.9,3.5-1.3c2.3-0.8,4.7-1.6,7-2.1c4.7-1.1,9.6-1.4,14.3-1
	c4.8,0.4,9.6,1.7,14.4,3c4.8,1.3,9.8,2.7,14.8,3.8c1.3,0.3,2.5,0.5,3.8,0.8l1.9,0.4l2,0.3c2.6,0.4,5.2,0.7,7.8,0.9
	c5.2,0.4,10.5,0.3,15.7-0.1c10.4-0.8,20.6-2.8,30.5-5.3c9.9-2.4,19.6-5.2,29.3-7.4c8.5-1.9,17-3.4,25.4-3.9c3.5,2.9,7.1,5.5,10.8,8
	c5,3.3,10.1,6.4,15.1,9.2c4.9,2.8,9.7,5.7,14.4,8.7c9.4,6,18.1,12.5,25.6,20.1c1.7,1.7,3.4,3.5,5,5.4c-0.9-0.4-1.7-0.8-2.6-1.2
	c-8.7-3.9-17.7-6.5-27-8.1c-9.2-1.5-18.7-2-28-0.9c-18.2,2.2-35.7,7.1-53.5,8.5c-2.2,0.2-4.5,0.3-6.7,0.3c-2.2,0-4.4-0.2-6.6-0.4
	c-4.4-0.5-8.9-1.2-13.4-1.8c-4.5-0.6-9.1-1-13.6-0.7c-2.3,0.2-4.5,0.5-6.7,1.2c-2.2,0.7-4.2,1.7-6,3.1c1.9-1.3,3.9-2.2,6.1-2.7
	c2.2-0.5,4.4-0.7,6.6-0.8c4.5,0,8.9,0.6,13.3,1.5c4.4,0.8,8.8,1.8,13.3,2.6c2.3,0.4,4.5,0.7,6.9,0.8c2.3,0.1,4.6,0.1,6.9,0.1
	c9.1-0.2,18.2-1.2,27.2-2.4c9-1.2,17.9-2.4,26.8-2.9c8.6-0.6,17.4,0.4,25.9,2.3c1.5,0.3,2.9,0.7,4.4,1.1c-2.3,0.1-4.7,0.4-6.9,1.1
	c-2.9,0.9-5.6,2.1-8.1,3.9c-2.4,1.7-4.6,3.7-6.4,6.1c-1.8,2.4-3.2,5.1-4.1,7.9c-0.7,2.2-1.1,4.5-1.2,6.7h2.5c0.3-2,0.7-3.9,1.4-5.8
	c0.9-2.5,2.3-4.7,4-6.7c1.7-2,3.7-3.6,6-5c2.2-1.3,4.6-2.3,7.1-2.9c2.5-0.6,5-0.7,7.6-0.5c5.1,0.5,10.2,2.4,15,4.7
	c4.9,2.3,9.6,5.1,14.5,7.9c2.4,1.4,4.9,2.7,7.5,4l1.4,1.4c0.9,0.9,1.7,1.9,2.5,2.9h22.5c-2.4-5-5-10-8-14.9
	C340.5,427.8,338.9,425.2,337.1,422.7 M363.6,158.1c0,3.2,0.3,6.5,0.8,9.7c-2.3-4.9-4.6-9.8-6.9-14.8c-3.5-7.7-6.7-15.6-9.1-23.7
	c-2.4-8.1-3.9-16.5-3.6-25.1c-0.7,8.5,0.5,17.1,2.7,25.3c2.1,8.3,5.1,16.3,8.3,24.2c3.2,7.9,6.6,15.7,9.8,23.5
	c0.9,2.1,1.7,4.2,2.5,6.3v-9.4c-0.4-1.3-0.7-2.7-1-4c-0.9-4-1.4-8-1.5-12.1c-0.1-4.1,0.1-8.1,1-12.1c0.4-1.8,0.9-3.6,1.6-5.3v-3.3
	c-1.4,2.6-2.5,5.4-3.2,8.2C364,149.7,363.6,153.9,363.6,158.1 M356.1,284.4c-0.3,0.8-0.6,1.6-0.8,2.4c-4.9-4.9-9.5-9.8-13.5-15.2
	l-1.7-2.3c-0.5-0.7-1-1.4-1.6-2.1c-1-1.5-2-2.9-3-4.4c-1.9-3-3.8-6.1-5.4-9.2c-6.7-12.6-10.9-26.5-11.3-40.7
	c-0.1-3.5,0-7.1,0.4-10.7c0.2-1.8,0.4-3.5,0.7-5.3l1-5.5c1.4-7.2,3.4-14.4,5.2-21.7c1.9-7.3,3.7-14.9,4.3-22.6
	c0.3-3.9,0.3-7.8-0.2-11.7c-0.4-3.9-1.3-7.7-2.5-11.4c-0.2-0.6-0.4-1.2-0.6-1.8c1.5-1.3,2.9-2.8,4-4.5c1.3-2,2.3-4.2,3.1-6.4
	c1.6-4.5,2.3-9,3.2-13.5c0.9-4.5,1.7-9,3.6-13.2c1-2.1,2.2-4,3.9-5.5c1.7-1.6,3.7-2.7,5.9-3.3c-2.2,0.5-4.4,1.5-6.2,3
	c-1.8,1.5-3.2,3.4-4.3,5.5c-2.1,4.2-3.2,8.7-4.3,13.2c-1.1,4.5-2.1,9-3.8,13.1c-1.4,3.5-3.4,6.8-6.2,9.1c-0.9-2.2-1.9-4.3-2.9-6.3
	c-1.7-3.4-3.5-6.7-5.3-10c-3.7-6.6-7.7-13-12.5-18.8c4.4,6.1,7.9,12.8,11.1,19.6c1.6,3.4,3.1,6.8,4.5,10.3c1.5,3.4,2.7,6.9,3.6,10.5
	c1.8,7.1,2,14.5,0.9,21.6c-0.2,1-0.3,2-0.5,3c-1.5-6.5-3.8-12.7-7-18.5c-4.5-8.3-10.8-15.7-18.4-21.3c-3.7-2.8-7.4-5.7-10.6-9
	c-3.3-3.3-6.1-7-7.9-11.3c-1.8-4.3-2.6-8.9-2.8-13.6c-0.2-4.7,0.1-9.3,0.6-14c-0.6,4.6-1,9.3-0.9,14c0.1,4.7,0.7,9.4,2.5,13.8
	c1.7,4.4,4.6,8.3,7.8,11.7c3.3,3.4,6.9,6.4,10.6,9.3c7.3,5.6,13.2,13,17.4,21.2c3.8,7.4,6.2,15.4,7.4,23.6
	c-1.1,4.1-2.4,8.2-3.8,12.3c-2.1,6.3-4.3,12.6-6.2,19.2c-0.6,0.2-1.3,0.4-1.9,0.6c-2.5,0.8-5,1.3-7.6,1.3c-5.2,0-10.5-1-15.4-2.9
	c-4.9-1.9-9.5-4.7-13.3-8.4c-3.8-3.7-6.7-8.4-7.7-13.7c0.8,5.3,3.5,10.2,7.2,14.1c3.7,3.9,8.3,7,13.3,9.1c5,2.2,10.3,3.5,15.8,3.7
	c2.8,0.1,5.6-0.4,8.2-1.1l0.6-0.2l-1.4,5.5c-0.5,1.9-0.9,3.9-1.2,5.8c-0.7,3.9-1.1,7.9-1.3,11.8c-0.3,7.9,0.4,15.9,2,23.7
	c1.5,7,3.7,13.9,6.4,20.5c-3.8,2.4-7.6,4.6-11.8,6.3c-2.4,1-4.8,1.8-7.3,2.1c-2.5,0.3-5.2,0-7.4-1.5c1,0.8,2.2,1.4,3.5,1.7
	c1.3,0.3,2.6,0.4,3.9,0.4c2.6-0.1,5.2-0.7,7.7-1.5c4.3-1.4,8.3-3.3,12.3-5.3c1.6,3.6,3.3,7.1,5.2,10.5c1,1.7,2,3.4,3,5.1
	c0.5,0.8,1.1,1.7,1.6,2.5l0.4,0.6l0.2,0.3l0.1,0.1l0-0.1l0.1,0.1l0.8,1.3c4.3,6.8,9.4,13,14.5,18.8c5.1,5.8,10.4,11.3,15.2,16.7
	c3,3.4,5.9,6.8,8.5,10.3V299c-2.2-2.1-4.4-4.1-6.6-6.2c0.7-5.7,3.3-11.5,6.3-17.2l0.3-0.5v-13.6c-1.9,3.6-4.1,7.2-6.2,10.9
	C359.8,276.2,357.7,280.1,356.1,284.4 M110.6,442.3l-1.8-0.6l-0.9-0.3l-1-0.3c-1.4-0.4-2.8-0.8-4.2-1.2c-1.3-1.3-2.6-2.5-3.9-3.6
	c-2.6-2.2-5.4-4.3-7.8-6.7c-1.2-1.2-2.3-2.5-3.2-3.9c-0.9-1.4-1.7-2.9-2.2-4.5c-1.1-3.2-1.2-6.7-1-10.1c-0.5,3.4-0.5,6.9,0.4,10.3
	c0.4,1.7,1.1,3.3,2,4.9c0.9,1.5,2,2.9,3.1,4.2c2.3,2.6,5,4.9,7.4,7.3l0.9,0.9c-4.2-1.2-8.4-2.5-12.7-3.5c-4.8-1.2-9.7-2.1-14.7-2.6
	c-5-0.4-10.1-0.4-15,0.5c-1.2,0.2-2.5,0.5-3.7,0.8c-1.2,0.3-2.5,0.7-3.6,1.1c-2.4,0.8-4.7,1.9-6.8,3.2c-3.7,2.1-7,4.6-10.3,7.1h2.3
	c2.9-2,5.8-3.9,8.9-5.5c2.1-1.1,4.3-2.1,6.6-2.8c1.1-0.4,2.3-0.7,3.5-0.9c1.2-0.2,2.4-0.4,3.5-0.6c4.8-0.6,9.6-0.5,14.3,0.2
	c4.8,0.6,9.5,1.7,14.1,3.1c4.7,1.3,9.3,2.9,13.9,4.5c1.7,0.6,3.5,1.2,5.2,1.7l0.2,0.3h0.4l0.1-0.1l0.2,0.1h15.1
	c-1.9-0.6-3.8-1.2-5.7-1.8L110.6,442.3z"/>
<path class="st0" d="M8.7,528.5c-6.5,0-11.3-0.5-14.5-1.6c-3.2-1.1-6-3-8.5-5.7c-2.3-2.4-3.9-5.1-4.9-8.1c-0.9-3-1.4-7.3-1.4-12.8
	v-41.4h14.6v40.9c0,4.1,0.2,6.9,0.5,8.6c0.4,1.7,1,3,1.9,4c1.4,1.6,3.1,2.8,5.1,3.5c2,0.7,4.8,1,8.4,1h17.2v11.6H8.7z M33.1,458.8
	v42.1c0,5.1,0.3,9.1,0.9,12c0.6,2.8,1.6,5.1,3,6.8c2.8,3.3,6.3,5.7,10.5,7.3c4.3,1.5,9.5,2.3,15.8,2.3c6.3,0,11.5-0.8,15.7-2.3
	c4.2-1.5,7.7-4,10.5-7.3c1.4-1.7,2.5-4,3.1-7c0.6-2.9,1-6.9,1-11.8v-42.1H79v41.7c0,6.5-1.2,11.1-3.5,13.6
	c-2.3,2.6-6.4,3.8-12.1,3.8s-9.8-1.3-12.2-3.9c-2.4-2.6-3.5-7.1-3.5-13.6v-41.7H33.1z M107.9,528.5h14.9l-1.5-54.8l18.4,54.8h15.5
	l17.9-54.3l-1.2,54.3h14.4v-69.7H165l-17.8,53.5l-17.8-53.5h-21.5V528.5z M216.2,458.8h-15.3v69.7h15.3V458.8z"/>
<path class="st2" d="M260.9,517.9c-6.5,0-11.2-2-14.2-6c-3-4-4.5-10.3-4.5-18.9c0-7.9,1.6-13.8,4.7-17.8c3.1-3.9,7.8-5.9,14.1-5.9
	c6.4,0,11.1,2,14.2,5.9c3.1,3.9,4.6,10.1,4.6,18.3c0,8.2-1.5,14.3-4.6,18.3C272,515.9,267.3,517.9,260.9,517.9 M260.9,457.5
	c-11.7,0-20.4,2.9-26.2,8.8c-5.7,5.8-8.6,14.8-8.6,26.7c0,12.7,2.8,22.1,8.4,28.1c5.6,6,14.4,9,26.3,9c11.8,0,20.5-3,26.2-8.9
	c5.7-5.9,8.5-15.1,8.5-27.4c0-12.3-2.8-21.4-8.5-27.3C281.5,460.4,272.7,457.5,260.9,457.5 M367,458.8h-15l0.7,50l-28.5-50h-18.5
	v69.7h15l-0.7-52.7l29.9,52.7h17V458.8z"/>
</svg>
