<?xml version="1.0" encoding="utf-8"?><!-- Uploaded to: SVG Repo, www.svgrepo.com, Generator: SVG Repo Mixer Tools -->
<svg version="1.1" id="Uploaded to svgrepo.com" xmlns="http://www.w3.org/2000/svg" xmlns:xlink="http://www.w3.org/1999/xlink" 
	 width="800px" height="800px" viewBox="0 0 32 32" xml:space="preserve">
<style type="text/css">
	.sharpcorners_een{fill:#111918;}
	.st0{fill:#111918;}
</style>
<path class="sharpcorners_een" d="M16,2C8.268,2,2,8.268,2,16s6.268,14,14,14s14-6.268,14-14S23.732,2,16,2z M16,28
	C9.373,28,4,22.627,4,16C4,9.373,9.373,4,16,4s12,5.373,12,12C28,22.627,22.627,28,16,28z M16,6C10.477,6,6,10.477,6,16
	c0,5.523,4.477,10,10,10s10-4.477,10-10C26,10.477,21.523,6,16,6z M18,16c0,1.105-0.895,2-2,2c-0.178,0-0.347-0.031-0.511-0.074
	l-4.085,4.085L9.99,20.596l4.085-4.085C14.031,16.347,14,16.178,14,16c0-1.105,0.895-2,2-2c0.178,0,0.347,0.031,0.511,0.074
	l4.085-4.085l1.414,1.414l-4.085,4.085C17.969,15.653,18,15.822,18,16z M17,16c0,0.552-0.448,1-1,1s-1-0.448-1-1
	c0-0.552,0.448-1,1-1S17,15.448,17,16z"/>
</svg>