<svg xmlns="http://www.w3.org/2000/svg" viewBox="0 0 48 48"><defs><style>.cls-1{fill:#bf7267;}.cls-2{fill:#af5d54;}.cls-3{fill:#cc8679;}.cls-4{fill:#505572;}.cls-5{fill:#ffbc5a;}.cls-6{fill:#231f20;}</style></defs><title>Suitcase</title><g id="Suitcase"><path class="cls-1" d="M3,24H45a0,0,0,0,1,0,0V42a2,2,0,0,1-2,2H5a2,2,0,0,1-2-2V24A0,0,0,0,1,3,24Z"/><path class="cls-2" d="M42,24V42a2,2,0,0,1-2,2h3a2,2,0,0,0,2-2V24Z"/><rect class="cls-3" x="2" y="12" width="44" height="13" rx="2" ry="2"/><path class="cls-1" d="M44,12H41a2,2,0,0,1,2,2v9a2,2,0,0,1-2,2h3a2,2,0,0,0,2-2V14A2,2,0,0,0,44,12Z"/><path class="cls-4" d="M14,8v4h4V8H30v4h4V8a4,4,0,0,0-4-4H18A4,4,0,0,0,14,8Z"/><rect class="cls-5" x="22" y="22" width="4" height="6" rx="1" ry="1"/><path class="cls-6" d="M44,11H35V8a5.0059,5.0059,0,0,0-5-5H18a5.0059,5.0059,0,0,0-5,5v3H4a3.0033,3.0033,0,0,0-3,3v9a2.9818,2.9818,0,0,0,1,2.22V42a3.0033,3.0033,0,0,0,3,3H43a3.0033,3.0033,0,0,0,3-3V25.22A2.9818,2.9818,0,0,0,47,23V14A3.0033,3.0033,0,0,0,44,11ZM15,8a3.0033,3.0033,0,0,1,3-3H30a3.0033,3.0033,0,0,1,3,3v3H31V8a1,1,0,0,0-1-1H18a1,1,0,0,0-1,1v3H15Zm4,3V9H29v2ZM3,14a1.0013,1.0013,0,0,1,1-1H44a1.0013,1.0013,0,0,1,1,1v9a1.0013,1.0013,0,0,1-1,1H27V23a2.002,2.002,0,0,0-2-2H23a2.002,2.002,0,0,0-2,2v1H4a1.0013,1.0013,0,0,1-1-1ZM25.0015,27H23V23h2l.0007,1.9964L25,25l.0007.0037ZM44,42a1.0013,1.0013,0,0,1-1,1H5a1.0013,1.0013,0,0,1-1-1V26H21v1a2.002,2.002,0,0,0,2,2h2a2.002,2.002,0,0,0,2-2V26H44Z"/></g></svg>