<?xml version="1.0" encoding="iso-8859-1"?>
<!-- Uploaded to: SVG Repo, www.svgrepo.com, Generator: SVG Repo Mixer Tools -->
<svg height="800px" width="800px" version="1.1" id="Layer_1" xmlns="http://www.w3.org/2000/svg" xmlns:xlink="http://www.w3.org/1999/xlink" 
	 viewBox="0 0 512 512" xml:space="preserve">
<g transform="translate(1)">
	<polygon style="fill:#FFE100;" points="17.347,193.707 174.36,36.693 270.787,133.12 270.787,8.533 492.653,8.533 492.653,503.467 
		270.787,503.467 270.787,447.147 	"/>
	<polygon style="fill:#FFFFFF;" points="42.947,193.707 187.16,49.493 174.36,36.693 17.347,193.707 270.787,447.147 
		270.787,503.467 296.387,503.467 296.387,447.147 	"/>
	<polygon style="fill:#FFA800;" points="467.053,503.467 492.653,503.467 492.653,8.533 467.053,8.533 	"/>
	<path d="M381.72,34.133c-5.12,0-8.533-3.413-8.533-8.533V8.533c0-5.12,3.413-8.533,8.533-8.533c5.12,0,8.533,3.413,8.533,8.533
		V25.6C390.253,30.72,386.84,34.133,381.72,34.133z"/>
	<path d="M381.72,445.44c-5.12,0-8.533-3.413-8.533-8.533v-33.28c0-5.12,3.413-8.533,8.533-8.533c5.12,0,8.533,3.413,8.533,8.533
		v33.28C390.253,442.027,386.84,445.44,381.72,445.44z M381.72,363.52c-5.12,0-8.533-3.413-8.533-8.533v-33.28
		c0-5.12,3.413-8.533,8.533-8.533c5.12,0,8.533,3.413,8.533,8.533v33.28C390.253,359.253,386.84,363.52,381.72,363.52z
		 M381.72,280.747c-5.12,0-8.533-3.413-8.533-8.533v-33.28c0-5.12,3.413-8.533,8.533-8.533c5.12,0,8.533,3.413,8.533,8.533v33.28
		C390.253,277.333,386.84,280.747,381.72,280.747z M381.72,198.827c-5.12,0-8.533-3.413-8.533-8.533v-33.28
		c0-5.12,3.413-8.533,8.533-8.533c5.12,0,8.533,3.413,8.533,8.533v33.28C390.253,194.56,386.84,198.827,381.72,198.827z
		 M381.72,116.053c-5.12,0-8.533-3.413-8.533-8.533V75.093c0-5.12,3.413-8.533,8.533-8.533c5.12,0,8.533,3.413,8.533,8.533v33.28
		C390.253,112.64,386.84,116.053,381.72,116.053z"/>
	<path d="M381.72,512c-5.12,0-8.533-3.413-8.533-8.533V486.4c0-5.12,3.413-8.533,8.533-8.533c5.12,0,8.533,3.413,8.533,8.533v17.067
		C390.253,508.587,386.84,512,381.72,512z"/>
	<path d="M107.8,135.68c-2.56,0-4.267-0.853-5.973-2.56L89.88,121.173c-3.413-3.413-3.413-8.533,0-11.947s8.533-3.413,11.947,0
		l11.947,11.947c3.413,3.413,3.413,8.533,0,11.947C112.067,134.827,110.36,135.68,107.8,135.68z"/>
	<path d="M223.853,251.733c-2.56,0-4.267-0.853-5.973-2.56l-23.04-23.04c-3.413-3.413-3.413-8.533,0-11.947s8.533-3.413,11.947,0
		l23.04,23.04c3.413,3.413,3.413,8.533,0,11.947C228.12,250.88,226.413,251.733,223.853,251.733z M165.827,193.707
		c-2.56,0-4.267-0.853-5.973-2.56l-23.04-23.04c-3.413-3.413-3.413-8.533,0-11.947s8.533-3.413,11.947,0l23.04,23.04
		c3.413,3.413,3.413,8.533,0,11.947C170.093,192.853,168.387,193.707,165.827,193.707z"/>
	<path d="M270.787,298.667c-2.56,0-4.267-0.853-5.973-2.56l-11.947-11.947c-3.413-3.413-3.413-8.533,0-11.947
		c3.413-3.413,8.533-3.413,11.947,0l11.947,11.947c3.413,3.413,3.413,8.533,0,11.947
		C275.053,297.813,273.347,298.667,270.787,298.667z"/>
	<path d="M492.653,512H270.787c-5.12,0-8.533-3.413-8.533-8.533V450.56L11.373,199.68c-3.413-3.413-3.413-8.533,0-11.947
		L168.387,30.72c1.707-1.707,3.413-2.56,5.973-2.56l0,0c2.56,0,4.267,0.853,5.973,2.56l81.92,81.92V8.533
		c0-5.12,3.413-8.533,8.533-8.533h221.867c5.12,0,8.533,3.413,8.533,8.533v494.933C501.187,508.587,497.773,512,492.653,512z
		 M279.32,494.933h204.8V17.067h-204.8V133.12c0,3.413-1.707,6.827-5.12,7.68c-3.413,0.853-6.827,0.853-9.387-1.707L174.36,48.64
		L29.293,193.707L276.76,441.173c1.707,1.707,2.56,3.413,2.56,5.973V494.933z"/>
</g>
</svg>