<?xml version="1.0" encoding="UTF-8"?><svg id="uuid-39e4399a-657c-474b-b58a-daa21e5cb584" xmlns="http://www.w3.org/2000/svg" width="100" height="100" viewBox="0 0 100 100"><path d="m90.89,69.4c0-12.88-10.49-23.37-23.38-23.37h-29.75c-2.61,0-4.74,2.12-4.74,4.74s2.13,4.74,4.74,4.74h29.75c7.66,0,13.9,6.23,13.9,13.89,0,4.3-1.64,10.34-10.75,13.35l-4.32.56s-.08,0-.12,0l-.23.04-56.87,7.33,19.82,2.95,43.68-6.94-34.48,8.31,17.12,2.55,18.18-5.25c.65-.18,1.28-.38,1.9-.62h.04s0-.02,0-.02c2.85-1.08,5.42-2.71,7.6-4.77,4.9-4.36,7.93-10.69,7.93-17.49Z" style="fill:#1a1a1a; fill-rule:evenodd;"/><path d="m37.37,36.99h38.37v-9.48h-.07l.06-19.14-1.8-.79v19.93h-4.86l.06-22.06-1.8-.79v22.85h-5.46V2.45l-15.67,5.99-.35,19.07h-4.94l.03-6.49-1.67-.76v7.25h-1.92c-.86,0-1.71.05-2.55.14l.05-9.51-1.67-.76v10.51c-1.77.32-3.48.84-5.09,1.54v-14.07l-14.11,5.39v30.13c0,12.88,10.49,23.37,23.38,23.37h29.75c2.61,0,4.74-2.12,4.74-4.74s-2.13-4.74-4.74-4.74h-29.75c-7.66,0-13.9-6.23-13.9-13.89s6.23-13.9,13.9-13.9Z" style="fill:#1a1a1a; fill-rule:evenodd;"/></svg>