<?xml version="1.0" encoding="utf-8"?>
<!-- Uploaded to: SVG Repo, www.svgrepo.com, Generator: SVG Repo Mixer Tools -->
<svg fill="#000000" width="800px" height="800px" viewBox="0 0 32 32" version="1.1" xmlns="http://www.w3.org/2000/svg">
<title>globe</title>
<path d="M16 0.75c-8.422 0-15.25 6.828-15.25 15.25s6.828 15.25 15.25 15.25c8.422 0 15.25-6.828 15.25-15.25v0c-0.010-8.418-6.832-15.24-15.249-15.25h-0.001zM16.004 28.391c-1.216-1.16-2.219-2.532-2.951-4.057l-0.036-0.084h5.978c-0.765 1.611-1.77 2.983-2.985 4.135l-0.006 0.006zM12.075 21.75c-0.402-1.328-0.672-2.866-0.752-4.454l-0.002-0.046h9.359c-0.081 1.634-0.348 3.172-0.782 4.639l0.035-0.139zM3.313 17.25h5.483c0.075 1.633 0.311 3.174 0.696 4.656l-0.034-0.156h-4.822c-0.683-1.306-1.152-2.831-1.318-4.446l-0.004-0.054zM15.996 3.609c1.264 1.215 2.299 2.657 3.040 4.263l0.036 0.087-6.144-0.030c0.773-1.683 1.805-3.116 3.062-4.315l0.006-0.005zM19.989 10.464c0.365 1.263 0.612 2.729 0.688 4.239l0.002 0.047h-9.359c0.078-1.571 0.326-3.050 0.729-4.464l-0.034 0.139zM8.796 14.75h-5.483c0.165-1.616 0.611-3.093 1.288-4.433l-0.033 0.072 4.845 0.023c-0.325 1.276-0.545 2.762-0.615 4.288l-0.002 0.049zM23.204 17.25h5.483c-0.17 1.669-0.64 3.194-1.355 4.57l0.033-0.070h-4.823c0.35-1.326 0.587-2.867 0.66-4.451l0.002-0.049zM23.204 14.75c-0.070-1.552-0.285-3.016-0.632-4.429l0.032 0.155 4.881 0.024c0.614 1.237 1.040 2.677 1.197 4.196l0.005 0.054zM25.908 7.992l-4.090-0.020c-0.634-1.616-1.425-3.012-2.381-4.275l0.032 0.044c2.609 0.756 4.806 2.245 6.421 4.227l0.018 0.023zM12.53 3.742c-0.914 1.203-1.697 2.58-2.287 4.056l-0.042 0.119-4.038-0.020c1.626-1.957 3.795-3.411 6.277-4.132l0.090-0.022zM6.296 24.25h3.975c0.623 1.53 1.382 2.851 2.291 4.052l-0.032-0.044c-2.507-0.727-4.627-2.126-6.22-3.99l-0.015-0.018zM19.469 28.258c0.877-1.157 1.636-2.478 2.217-3.891l0.043-0.117h3.976c-1.608 1.882-3.728 3.281-6.145 3.985l-0.090 0.023z"></path>
</svg>