<?xml version="1.0" encoding="utf-8"?><!-- Uploaded to: SVG Repo, www.svgrepo.com, Generator: SVG Repo Mixer Tools -->
<svg width="800px" height="800px" viewBox="0 0 24 24" xmlns="http://www.w3.org/2000/svg" id="chat-alt-5" class="icon glyph"><path d="M20,2H4A2,2,0,0,0,2,4V16a2,2,0,0,0,2,2H7v3a1,1,0,0,0,.57.9A.91.91,0,0,0,8,22a1,1,0,0,0,.62-.22L13.35,18H20a2,2,0,0,0,2-2V4A2,2,0,0,0,20,2ZM8,11a1,1,0,1,1,1-1A1,1,0,0,1,8,11Zm4,0a1,1,0,1,1,1-1A1,1,0,0,1,12,11Zm4,0a1,1,0,1,1,1-1A1,1,0,0,1,16,11Z" style="fill:#231f20"></path></svg>